<svg id="Layer_1" data-name="Layer 1" xmlns="http://www.w3.org/2000/svg" viewBox="0 0 553.74 397.65"><defs><style>.cls-1{fill:#00a773;}.cls-2{fill:#fff;}.cls-3,.cls-5{fill:none;stroke-miterlimit:10;stroke-width:2px;}.cls-3{stroke:#000;}.cls-4{font-size:103.19px;font-family:Lato-Black, Lato;font-weight:800;}.cls-4,.cls-6,.cls-7{fill:#121617;}.cls-5{stroke:#231f20;}.cls-6,.cls-7{font-size:34px;}.cls-6{font-family:Lato-Regular, Lato;}.cls-7{font-family:Lato-Bold, Lato;font-weight:700;}</style></defs><title>header</title><rect class="cls-1" x="101.33" y="147.36" width="333.23" height="148.39"/><rect class="cls-2" x="60.7" y="118.6" width="333.23" height="148.39"/><rect class="cls-3" x="60.7" y="118.6" width="333.23" height="148.39"/><text class="cls-4" transform="translate(86.82 227.54)">C</text><text class="cls-4" transform="translate(176.59 227.54)">I</text><text class="cls-4" transform="translate(231.7 227.54)">E</text><text class="cls-4" transform="translate(311.97 227.54)">F</text><rect class="cls-3" x="19.78" y="16.27" width="102.86" height="102.33"/><rect class="cls-1" x="1" y="1" width="102.86" height="102.86"/><rect class="cls-5" x="1" y="1" width="102.86" height="102.86"/><line class="cls-3" x1="105.02" y1="1.31" x2="123.84" y2="16.58"/><line class="cls-3" x1="103.49" y1="103.33" x2="122.64" y2="117.93"/><rect class="cls-2" x="328.92" y="295.92" width="223.82" height="100.72"/><rect class="cls-3" x="328.92" y="295.92" width="223.82" height="100.72"/><text class="cls-6" transform="translate(351.4 335.5)">E</text><text class="cls-6" transform="translate(370.47 335.5)">ngineering</text><text class="cls-7" transform="translate(359.96 376.3)"> </text><text class="cls-6" transform="translate(365.51 376.3)">T</text><text class="cls-6" transform="translate(381.66 376.3)">omor</text><text class="cls-6" transform="translate(460.78 376.3)">r</text><text class="cls-6" transform="translate(474.24 376.3)">o</text><text class="cls-6" transform="translate(493.28 376.3)">w</text></svg>